<mxfile host="app.diagrams.net" modified="2024-05-22T12:04:24.776Z" agent="Mozilla/5.0 (Macintosh; Intel Mac OS X 10_15_7) AppleWebKit/537.36 (KHTML, like Gecko) Chrome/103.0.5060.53 Safari/537.36" etag="31SeRUIEAktq0FZpzrPD" version="24.3.1" type="github">
  <diagram id="C5RBs43oDa-KdzZeNtuy" name="Page-1">
    <mxGraphModel dx="1194" dy="652" grid="0" gridSize="10" guides="1" tooltips="1" connect="1" arrows="1" fold="1" page="1" pageScale="1" pageWidth="827" pageHeight="1169" math="0" shadow="0">
      <root>
        <mxCell id="WIyWlLk6GJQsqaUBKTNV-0" />
        <mxCell id="WIyWlLk6GJQsqaUBKTNV-1" parent="WIyWlLk6GJQsqaUBKTNV-0" />
        <mxCell id="WIyWlLk6GJQsqaUBKTNV-2" value="" style="rounded=0;html=1;jettySize=auto;orthogonalLoop=1;fontSize=11;endArrow=block;endFill=0;endSize=8;strokeWidth=1;shadow=0;labelBackgroundColor=none;edgeStyle=orthogonalEdgeStyle;entryX=0.5;entryY=0;entryDx=0;entryDy=0;" parent="WIyWlLk6GJQsqaUBKTNV-1" source="WIyWlLk6GJQsqaUBKTNV-3" target="dbAgIo4c6Hb7sSEYwWGR-1" edge="1">
          <mxGeometry relative="1" as="geometry">
            <mxPoint x="320" y="199" as="targetPoint" />
          </mxGeometry>
        </mxCell>
        <mxCell id="WIyWlLk6GJQsqaUBKTNV-3" value="VM Startseite&amp;nbsp;" style="rounded=1;whiteSpace=wrap;html=1;fontSize=12;glass=0;strokeWidth=1;shadow=0;" parent="WIyWlLk6GJQsqaUBKTNV-1" vertex="1">
          <mxGeometry x="311" y="180" width="120" height="40" as="geometry" />
        </mxCell>
        <mxCell id="dbAgIo4c6Hb7sSEYwWGR-1" value="Unternehmen aus Liste auswählen&amp;nbsp;" style="rounded=1;whiteSpace=wrap;html=1;" parent="WIyWlLk6GJQsqaUBKTNV-1" vertex="1">
          <mxGeometry x="311" y="266" width="120" height="60" as="geometry" />
        </mxCell>
        <mxCell id="dbAgIo4c6Hb7sSEYwWGR-6" value="" style="endArrow=none;html=1;rounded=0;entryX=0;entryY=0.5;entryDx=0;entryDy=0;exitX=0.5;exitY=0.5;exitDx=0;exitDy=0;exitPerimeter=0;" parent="WIyWlLk6GJQsqaUBKTNV-1" target="WIyWlLk6GJQsqaUBKTNV-3" edge="1" source="b_vjkwJPaaLIAbY4UjVX-1">
          <mxGeometry width="50" height="50" relative="1" as="geometry">
            <mxPoint x="125" y="200" as="sourcePoint" />
            <mxPoint x="220" y="150" as="targetPoint" />
          </mxGeometry>
        </mxCell>
        <mxCell id="dbAgIo4c6Hb7sSEYwWGR-7" value="richtigen Vertrag&amp;nbsp;&lt;div&gt;ausgewählt&amp;nbsp;&lt;/div&gt;" style="rhombus;whiteSpace=wrap;html=1;" parent="WIyWlLk6GJQsqaUBKTNV-1" vertex="1">
          <mxGeometry x="290.5" y="371" width="161" height="93" as="geometry" />
        </mxCell>
        <mxCell id="dbAgIo4c6Hb7sSEYwWGR-9" value="" style="endArrow=block;html=1;rounded=0;exitX=0;exitY=0.5;exitDx=0;exitDy=0;entryX=0;entryY=0.5;entryDx=0;entryDy=0;endFill=0;" parent="WIyWlLk6GJQsqaUBKTNV-1" source="dbAgIo4c6Hb7sSEYwWGR-7" target="dbAgIo4c6Hb7sSEYwWGR-1" edge="1">
          <mxGeometry width="50" height="50" relative="1" as="geometry">
            <mxPoint x="390" y="360" as="sourcePoint" />
            <mxPoint x="440" y="310" as="targetPoint" />
            <Array as="points">
              <mxPoint x="222" y="418" />
              <mxPoint x="222" y="296" />
            </Array>
          </mxGeometry>
        </mxCell>
        <mxCell id="dbAgIo4c6Hb7sSEYwWGR-10" value="nein" style="edgeLabel;html=1;align=center;verticalAlign=middle;resizable=0;points=[];" parent="dbAgIo4c6Hb7sSEYwWGR-9" vertex="1" connectable="0">
          <mxGeometry x="-0.0769" y="1" relative="1" as="geometry">
            <mxPoint as="offset" />
          </mxGeometry>
        </mxCell>
        <mxCell id="b_vjkwJPaaLIAbY4UjVX-7" value="" style="edgeStyle=orthogonalEdgeStyle;rounded=0;orthogonalLoop=1;jettySize=auto;html=1;exitX=0.5;exitY=1;exitDx=0;exitDy=0;entryX=0.5;entryY=0;entryDx=0;entryDy=0;endArrow=block;endFill=0;" edge="1" parent="WIyWlLk6GJQsqaUBKTNV-1" source="b_vjkwJPaaLIAbY4UjVX-3" target="dbAgIo4c6Hb7sSEYwWGR-11">
          <mxGeometry relative="1" as="geometry">
            <mxPoint x="557" y="458" as="targetPoint" />
          </mxGeometry>
        </mxCell>
        <mxCell id="dbAgIo4c6Hb7sSEYwWGR-11" value="Verwaltungsfunktionen zu einzelnen Verträgen&amp;nbsp;" style="swimlane;whiteSpace=wrap;html=1;startSize=50;" parent="WIyWlLk6GJQsqaUBKTNV-1" vertex="1">
          <mxGeometry x="557" y="485" width="199" height="143" as="geometry" />
        </mxCell>
        <mxCell id="dbAgIo4c6Hb7sSEYwWGR-12" value="- bearbeiten&amp;nbsp;&lt;div&gt;- löschen&amp;nbsp;&lt;/div&gt;&lt;div&gt;- neu erstellen&lt;/div&gt;&lt;div&gt;&lt;span style=&quot;background-color: initial;&quot;&gt;- suchen&amp;nbsp;&lt;/span&gt;&lt;br&gt;&lt;/div&gt;" style="text;html=1;align=left;verticalAlign=middle;resizable=0;points=[];autosize=1;strokeColor=none;fillColor=none;" parent="dbAgIo4c6Hb7sSEYwWGR-11" vertex="1">
          <mxGeometry x="8" y="64" width="94" height="70" as="geometry" />
        </mxCell>
        <mxCell id="dbAgIo4c6Hb7sSEYwWGR-14" value="ja" style="endArrow=block;html=1;rounded=0;exitX=1;exitY=0.5;exitDx=0;exitDy=0;endFill=0;entryX=0;entryY=0.5;entryDx=0;entryDy=0;" parent="WIyWlLk6GJQsqaUBKTNV-1" source="dbAgIo4c6Hb7sSEYwWGR-7" edge="1" target="b_vjkwJPaaLIAbY4UjVX-3">
          <mxGeometry width="50" height="50" relative="1" as="geometry">
            <mxPoint x="390" y="419" as="sourcePoint" />
            <mxPoint x="550" y="434" as="targetPoint" />
          </mxGeometry>
        </mxCell>
        <mxCell id="dbAgIo4c6Hb7sSEYwWGR-15" value="" style="strokeWidth=2;html=1;shape=mxgraph.flowchart.start_1;whiteSpace=wrap;fillColor=#000000;aspect=fixed;" parent="WIyWlLk6GJQsqaUBKTNV-1" vertex="1">
          <mxGeometry x="113" y="194" width="14" height="14" as="geometry" />
        </mxCell>
        <mxCell id="dbAgIo4c6Hb7sSEYwWGR-17" value="" style="rounded=0;html=1;jettySize=auto;orthogonalLoop=1;fontSize=11;endArrow=block;endFill=0;endSize=8;strokeWidth=1;shadow=0;labelBackgroundColor=none;edgeStyle=orthogonalEdgeStyle;entryX=1;entryY=0.5;entryDx=0;entryDy=0;" parent="WIyWlLk6GJQsqaUBKTNV-1" target="b_vjkwJPaaLIAbY4UjVX-9" edge="1">
          <mxGeometry relative="1" as="geometry">
            <mxPoint x="556" y="565" as="sourcePoint" />
            <mxPoint x="475" y="565" as="targetPoint" />
          </mxGeometry>
        </mxCell>
        <mxCell id="dbAgIo4c6Hb7sSEYwWGR-18" value="" style="rounded=0;html=1;jettySize=auto;orthogonalLoop=1;fontSize=11;endArrow=block;endFill=0;endSize=8;strokeWidth=1;shadow=0;labelBackgroundColor=none;edgeStyle=orthogonalEdgeStyle;entryX=0.5;entryY=0;entryDx=0;entryDy=0;exitX=0.5;exitY=1;exitDx=0;exitDy=0;" parent="WIyWlLk6GJQsqaUBKTNV-1" source="dbAgIo4c6Hb7sSEYwWGR-1" target="dbAgIo4c6Hb7sSEYwWGR-7" edge="1">
          <mxGeometry relative="1" as="geometry">
            <mxPoint x="330" y="241" as="sourcePoint" />
            <mxPoint x="330" y="291" as="targetPoint" />
          </mxGeometry>
        </mxCell>
        <mxCell id="b_vjkwJPaaLIAbY4UjVX-0" value="Actor" style="shape=umlActor;verticalLabelPosition=bottom;verticalAlign=top;html=1;outlineConnect=0;" vertex="1" parent="WIyWlLk6GJQsqaUBKTNV-1">
          <mxGeometry x="58" y="179" width="30" height="60" as="geometry" />
        </mxCell>
        <mxCell id="b_vjkwJPaaLIAbY4UjVX-2" value="" style="endArrow=none;html=1;rounded=0;entryX=0;entryY=0.5;entryDx=0;entryDy=0;exitX=0.5;exitY=0.5;exitDx=0;exitDy=0;exitPerimeter=0;" edge="1" parent="WIyWlLk6GJQsqaUBKTNV-1" target="b_vjkwJPaaLIAbY4UjVX-1">
          <mxGeometry width="50" height="50" relative="1" as="geometry">
            <mxPoint x="125" y="200" as="sourcePoint" />
            <mxPoint x="312" y="205" as="targetPoint" />
          </mxGeometry>
        </mxCell>
        <mxCell id="b_vjkwJPaaLIAbY4UjVX-1" value="erfolgreiche Anmeldung eines autorisierten Benutzers" style="rounded=1;whiteSpace=wrap;html=1;" vertex="1" parent="WIyWlLk6GJQsqaUBKTNV-1">
          <mxGeometry x="172" y="160" width="109" height="80" as="geometry" />
        </mxCell>
        <mxCell id="b_vjkwJPaaLIAbY4UjVX-3" value="Aktion wählen&amp;nbsp;" style="rounded=1;whiteSpace=wrap;html=1;" vertex="1" parent="WIyWlLk6GJQsqaUBKTNV-1">
          <mxGeometry x="597" y="387.5" width="120" height="60" as="geometry" />
        </mxCell>
        <mxCell id="b_vjkwJPaaLIAbY4UjVX-9" value="(alle) Aktion(en) erfolgreich&lt;span style=&quot;background-color: initial;&quot;&gt;&amp;nbsp;&lt;/span&gt;&lt;div&gt;&lt;div&gt;ausgeführt&lt;/div&gt;&lt;/div&gt;" style="rhombus;whiteSpace=wrap;html=1;" vertex="1" parent="WIyWlLk6GJQsqaUBKTNV-1">
          <mxGeometry x="277" y="508" width="188" height="114" as="geometry" />
        </mxCell>
        <mxCell id="b_vjkwJPaaLIAbY4UjVX-10" value="" style="endArrow=classic;html=1;rounded=0;exitX=0.5;exitY=0;exitDx=0;exitDy=0;entryX=0.5;entryY=1;entryDx=0;entryDy=0;" edge="1" parent="WIyWlLk6GJQsqaUBKTNV-1" source="b_vjkwJPaaLIAbY4UjVX-9" target="dbAgIo4c6Hb7sSEYwWGR-7">
          <mxGeometry width="50" height="50" relative="1" as="geometry">
            <mxPoint x="366" y="475" as="sourcePoint" />
            <mxPoint x="416" y="425" as="targetPoint" />
          </mxGeometry>
        </mxCell>
        <mxCell id="b_vjkwJPaaLIAbY4UjVX-11" value="nein" style="edgeLabel;html=1;align=center;verticalAlign=middle;resizable=0;points=[];" vertex="1" connectable="0" parent="b_vjkwJPaaLIAbY4UjVX-10">
          <mxGeometry x="0.0107" y="-1" relative="1" as="geometry">
            <mxPoint as="offset" />
          </mxGeometry>
        </mxCell>
        <mxCell id="b_vjkwJPaaLIAbY4UjVX-12" value="" style="ellipse;html=1;shape=endState;fillColor=#000000;strokeColor=#ff0000;" vertex="1" parent="WIyWlLk6GJQsqaUBKTNV-1">
          <mxGeometry x="157" y="554" width="22" height="22" as="geometry" />
        </mxCell>
        <mxCell id="b_vjkwJPaaLIAbY4UjVX-13" value="" style="endArrow=classic;html=1;rounded=0;exitX=0;exitY=0.5;exitDx=0;exitDy=0;entryX=1;entryY=0.5;entryDx=0;entryDy=0;" edge="1" parent="WIyWlLk6GJQsqaUBKTNV-1" source="b_vjkwJPaaLIAbY4UjVX-9" target="b_vjkwJPaaLIAbY4UjVX-12">
          <mxGeometry width="50" height="50" relative="1" as="geometry">
            <mxPoint x="366" y="475" as="sourcePoint" />
            <mxPoint x="416" y="425" as="targetPoint" />
          </mxGeometry>
        </mxCell>
        <mxCell id="b_vjkwJPaaLIAbY4UjVX-17" value="ja" style="edgeLabel;html=1;align=center;verticalAlign=middle;resizable=0;points=[];" vertex="1" connectable="0" parent="b_vjkwJPaaLIAbY4UjVX-13">
          <mxGeometry x="0.0306" relative="1" as="geometry">
            <mxPoint as="offset" />
          </mxGeometry>
        </mxCell>
      </root>
    </mxGraphModel>
  </diagram>
</mxfile>
